<mxfile host="Electron" modified="2023-11-21T07:41:16.169Z" agent="Mozilla/5.0 (Macintosh; Intel Mac OS X 10_15_7) AppleWebKit/537.36 (KHTML, like Gecko) draw.io/21.1.2 Chrome/106.0.5249.199 Electron/21.4.3 Safari/537.36" etag="bShZJ7M3mkDo0PNB0SHk" version="21.1.2" type="device">
  <diagram name="第 1 页" id="sI34Kk2dU-XaPxndDxfz">
    <mxGraphModel dx="1026" dy="669" grid="1" gridSize="10" guides="1" tooltips="1" connect="1" arrows="1" fold="1" page="1" pageScale="1" pageWidth="1654" pageHeight="2336" math="0" shadow="0">
      <root>
        <mxCell id="0" />
        <mxCell id="1" parent="0" />
        <mxCell id="RANb38WVvFzRageh8pK1-4" value="{&lt;br&gt;	&lt;span style=&quot;white-space: pre;&quot;&gt;	&lt;/span&gt;&quot;prompt&quot;: &quot;任务：给输入的文本加上标点符号，并且改成友好的反正则格式。直接输出改写的结果，不要包含任何其他信息&quot;,&lt;br&gt;	&lt;span style=&quot;white-space: pre;&quot;&gt;	&lt;/span&gt;&quot;input&quot;: &quot;最近看了一些历史类电视剧比如大秦帝国和汉武大帝还有康熙王朝和贞观长歌觉得都很经典是啊这些电视剧都符合历史背景不像有些电视剧完全违背历史对大秦帝国之前还有一部叫做大秦帝国之变法讲的是商鞅的变法很有意思&quot;&lt;br&gt;}" style="whiteSpace=wrap;html=1;fillColor=#ffe6cc;strokeColor=#d79b00;align=left;" vertex="1" parent="1">
          <mxGeometry x="100" y="80" width="190" height="210" as="geometry" />
        </mxCell>
      </root>
    </mxGraphModel>
  </diagram>
</mxfile>
